<?xml version="1.0" standalone="no"?><!DOCTYPE svg PUBLIC "-//W3C//DTD SVG 1.1//EN" "http://www.w3.org/Graphics/SVG/1.1/DTD/svg11.dtd">
<svg t="1714395821130" class="icon" viewBox="0 0 1024 1024" version="1.1" xmlns="http://www.w3.org/2000/svg" p-id="1667"
     width="200" height="200"><path d="M768 704v-70.2208L876.6208 742.4 768 851.0208V780.8h-17.6128c-108.1344 0-188.0576-37.5296-224.1536-123.2128a38.4 38.4 0 1 1 70.784-29.824c22.016 52.3264 72.96 76.2368 153.344 76.2368H768z m0-435.2V198.5792L876.6208 307.2 768 415.8208V345.6h-17.6128c-80.384 0-131.328 23.9104-153.344 76.2368l-99.2768 235.7504c-36.096 85.6832-116.0192 123.2128-224.1536 123.2128H230.4a38.4 38.4 0 0 1 0-76.8h43.2128c80.384 0 131.328-23.9104 153.344-76.2368l99.2768-235.7504c36.096-85.6832 116.0192-123.2128 224.1536-123.2128H768z m-537.6 0h43.2128c108.1344 0 188.0576 37.5296 224.1536 123.2128a38.4 38.4 0 1 1-70.784 29.824c-22.016-52.3264-72.96-76.2368-153.344-76.2368H230.4a38.4 38.4 0 0 1 0-76.8z" fill="#cdcdcd" p-id="1668"></path></svg>